<svg id="the_hub_ray_svg" width="0" height="0" preserveAspectRatio="xMidYMid">
	<defs>
		<clipPath id="the_ray_group_mask">
			<rect id="the_ray_group_mask" x="0" y="500" width="2000" height="1000" overflow="hidden" />
		</clipPath>
		
		<linearGradient id="the_rays_1_fill_gradient" gradientUnits="userSpaceOnUse" x1="0" y1="1000" x2="2000" y2="1000">
			<stop offset="0" stop-color="#FFFFFF"/>
			<stop offset="1" stop-color="#012F3A"/>
		</linearGradient>
		<radialGradient id="the_rays_4_fill_gradient" cx="1000" cy="1000" r="1000" gradientUnits="userSpaceOnUse">
			<stop offset="0" stop-color="#012F3A" stop-opacity="0"/>
			<stop offset="0.2746" stop-color="#012F3A" stop-opacity="1"/>
			<stop offset="0.3663" stop-color="#05323D" stop-opacity="0.8862"/>
			<stop offset="0.4576" stop-color="#113C46" stop-opacity="0.773"/>
			<stop offset="0.5488" stop-color="#254C56" stop-opacity="0.6598"/>
			<stop offset="0.64" stop-color="#41636C" stop-opacity="0.5467"/>
			<stop offset="0.7312" stop-color="#658188" stop-opacity="0.4335"/>
			<stop offset="0.8225" stop-color="#92A5AA" stop-opacity="0.3202"/>
			<stop offset="0.9121" stop-color="#C5CFD2" stop-opacity="0.2091"/>
			<stop offset="1" stop-color="#FFFFFF" stop-opacity="0.1"/>
		</radialGradient>
		<radialGradient id="the_rays_4_stroke_gradient" cx="1000" cy="1000" r="1000" gradientUnits="userSpaceOnUse">
			<stop offset="0" stop-color="#012F3A" stop-opacity="1"/>
			<stop offset="0.1264" stop-color="#05323D" stop-opacity="0.8862"/>
			<stop offset="0.2523" stop-color="#113C46" stop-opacity="0.773"/>
			<stop offset="0.378" stop-color="#254C56" stop-opacity="0.6598"/>
			<stop offset="0.5037" stop-color="#41636C" stop-opacity="0.5467"/>
			<stop offset="0.6295" stop-color="#658188" stop-opacity="0.4335"/>
			<stop offset="0.7553" stop-color="#92A5AA" stop-opacity="0.3202"/>
			<stop offset="0.8788" stop-color="#C5CFD2" stop-opacity="0.2091"/>
			<stop offset="1" stop-color="#FFFFFF" stop-opacity="0.1"/>
		</radialGradient>		
		<linearGradient id="the_rays_3_gradient" gradientUnits="userSpaceOnUse" x1="-300" y1="1000" x2="2300" y2="1000">
			<stop offset="0" stop-color="#FFFFFF"/>
			<stop offset="1" stop-color="#012F3A"/>
		</linearGradient>		
		<linearGradient id="the_rays_2_gradient" gradientUnits="userSpaceOnUse" x1="500" y1="1000" x2="1500" y2="1000">
			<stop offset="0" stop-color="#FFFFFF"/>
			<stop offset="1" stop-color="#012F3A"/>
		</linearGradient>
		
		<g id="the_hub_ray_group">
			
			<path id="the_rays_5" opacity="0.6" clip-path="url( #the_ray_group_mask )" fill="url( the_rays_1_fill_gradient )"
				d="M1248.8,1024.5L2000,1000l-751.2-24.5l731.99-170.59l-741.55,122.52l684.64-310.11l-703.4,264.83l610.99-437.72L1193.25,841.4
				l513.85-548.51L1158.6,806.75l396.97-638.22l-437.72,610.99l264.83-703.4l-310.11,684.64l122.52-741.55L1024.5,751.2L1000,0
				l-24.5,751.2L804.91,19.21l122.52,741.55L617.32,76.12l264.83,703.4L444.43,168.53L841.4,806.75L292.89,292.89L806.75,841.4
				L168.53,444.43l610.99,437.72L76.12,617.32l684.64,310.11L19.21,804.91L751.2,975.5L0,1000l751.2,24.5L19.21,1195.09l741.55-122.52
				L76.12,1382.68l703.4-264.83l-610.99,437.72l638.22-396.97l-513.85,548.51l548.51-513.85l-396.97,638.22l437.72-610.99
				l-264.83,703.4l310.11-684.64l-122.52,741.55L975.5,1248.8L1000,2000l24.5-751.2l170.59,731.99l-122.52-741.55l310.11,684.64
				l-264.83-703.4l437.72,610.99l-396.97-638.22l548.51,513.85l-513.85-548.51l638.22,396.97l-610.99-437.72l703.4,264.83
				l-684.64-310.11l741.55,122.52L1248.8,1024.5z M1000,1150c-82.84,0-150-67.16-150-150s67.16-150,150-150s150,67.16,150,150
				S1082.84,1150,1000,1150z"/>

			<polygon id="the_rays_4" clip-path="url( #the_ray_group_mask )" fill="url( #the_rays_4_fill_gradient )" stroke="url( #the_rays_4_stroke_gradient )" stroke-width="2" stroke-miterlimit="9" points="
				1000,919.61 1098.49,0 1015.68,921.16 1291.69,38.43 1030.76,925.73 1473.68,113.81 1044.66,933.16 1637.46,223.25 1056.84,943.16 
				1776.75,362.54 1066.84,955.34 1886.19,526.32 1074.27,969.24 1961.57,708.31 1078.84,984.32 2000,901.51 1080.39,1000 
				2000,1098.49 1078.84,1015.68 1961.57,1291.69 1074.27,1030.76 1886.19,1473.68 1066.84,1044.66 1776.75,1637.46 1056.84,1056.84 
				1637.46,1776.75 1044.66,1066.84 1473.68,1886.19 1030.76,1074.27 1291.69,1961.57 1015.68,1078.84 1098.49,2000 1000,1080.39 
				901.51,2000 984.32,1078.84 708.31,1961.57 969.24,1074.27 526.32,1886.19 955.34,1066.84 362.54,1776.75 943.16,1056.84 
				223.25,1637.46 933.16,1044.66 113.81,1473.68 925.73,1030.76 38.43,1291.69 921.16,1015.68 0,1098.49 919.61,1000 0,901.51 
				921.16,984.32 38.43,708.31 925.73,969.24 113.81,526.32 933.16,955.34 223.25,362.54 943.16,943.16 362.54,223.25 955.34,933.16 
				526.32,113.81 969.24,925.73 708.31,38.43 984.32,921.16 901.51,0 "/>

			<polygon id="the_rays_3" clip-path="url( #the_ray_group_mask )" fill="url( #the_rays_3_gradient )" points="
				872.13,-300 1000,1000 1128.06,-300 1000,1000 1379.29,-250.07 1000,1000 1615.83,-151.98 1000,1000 1828.68,-9.69 1000,1000 
				2009.81,171.29 1000,1000 2152.16,384.24 1000,1000 2250.07,620.87 1000,1000 2300,872.11 1000,1000 2300,1128.09 1000,1000 
				2250.07,1379.32 1000,1000 2151.97,1615.96 1000,1000 2009.61,1828.71 1000,1000 1828.68,2009.88 1000,1000 1615.63,2152.18 
				1000,1000 1379.09,2250.07 1000,1000 1127.87,2300 1000,1000 871.94,2300 1000,1000 620.71,2250.07 1000,1000 384.17,2151.98 
				1000,1000 171.32,2009.69 1000,1000 -9.81,1828.71 1000,1000 -152.16,1615.76 1000,1000 -250.07,1379.13 1000,1000 -300,1127.89 
				1000,1000 -300,871.91 1000,1000 -250.07,620.68 1000,1000 -151.97,384.04 1000,1000 -9.61,171.29 1000,1000 171.32,-9.88 
				1000,1000 384.37,-152.18 1000,1000 620.91,-250.07 1000,1000 "/>

			<polygon id="the_rays_2" opacity="0.6" clip-path="url( #the_ray_group_mask )" fill="url( #the_rays_2_gradient )" stroke="#000000" stroke-width="2" stroke-miterlimit="9"
			    points="1000,500 1007.35,925.36 1097.55,509.61 1021.77,928.23 1191.34,538.06 1035.35,933.86 1277.79,584.27 1047.58,942.02 
				1353.55,646.45 1057.98,952.42 1415.73,722.21 1066.14,964.65 1461.94,808.66 1071.77,978.23 1490.39,902.45 1074.64,992.65 
				1500,1000 1074.64,1007.35 1490.39,1097.55 1071.77,1021.77 1461.94,1191.34 1066.14,1035.35 1415.73,1277.79 1057.98,1047.58 
				1353.55,1353.55 1047.58,1057.98 1277.79,1415.73 1035.35,1066.14 1191.34,1461.94 1021.77,1071.77 1097.55,1490.39 
				1007.35,1074.64 1000,1500 992.65,1074.64 902.45,1490.39 978.23,1071.77 808.66,1461.94 964.65,1066.14 722.21,1415.73 
				952.42,1057.98 646.45,1353.55 942.02,1047.58 584.27,1277.79 933.86,1035.35 538.06,1191.34 928.23,1021.77 509.61,1097.55 
				925.36,1007.35 500,1000 925.36,992.65 509.61,902.45 928.23,978.23 538.06,808.66 933.86,964.65 584.27,722.21 942.02,952.42 
				646.45,646.45 952.42,942.02 722.21,584.27 964.65,933.86 808.66,538.06 978.23,928.23 902.45,509.61 992.65,925.36 "/>

			<polygon id="the_rays_1" clip-path="url( #the_ray_group_mask )" fill="url( #the_rays_1_fill_gradient )" stroke="url( #the_rays_1_stroke_gradient )" stroke-width="0.5" stroke-miterlimit="9" points="
				1000,-500 1001.47,985.07 1292.64,-471.18 1004.35,985.65 1574.03,-385.82 1007.07,986.77 1833.36,-247.2 1009.52,988.4 
				2060.66,-60.66 1011.6,990.48 2247.2,166.64 1013.23,992.93 2385.82,425.97 1014.35,995.65 2471.18,707.36 1014.93,998.53 
				2500,1000 1014.93,1001.47 2471.18,1292.64 1014.35,1004.35 2385.82,1574.03 1013.23,1007.07 2247.2,1833.36 1011.6,1009.52 
				2060.66,2060.66 1009.52,1011.6 1833.36,2247.2 1007.07,1013.23 1574.03,2385.82 1004.35,1014.35 1292.64,2471.18 1001.47,1014.93 
				1000,2500 998.53,1014.93 707.36,2471.18 995.65,1014.35 425.97,2385.82 992.93,1013.23 166.64,2247.2 990.48,1011.6 
				-60.66,2060.66 988.4,1009.52 -247.2,1833.36 986.77,1007.07 -385.82,1574.03 985.65,1004.35 -471.18,1292.64 985.07,1001.47 
				-500,1000 985.07,998.53 -471.18,707.36 985.65,995.65 -385.82,425.97 986.77,992.93 -247.2,166.64 988.4,990.48 -60.66,-60.66 
				990.48,988.4 166.64,-247.2 992.93,986.77 425.97,-385.82 995.65,985.65 707.36,-471.18 998.53,985.07 "/>
			
		</g>
	</defs>
</svg>
