<svg id="the_hub_ray_svg" width="0" height="0">
	
	<defs>
		<g id="the_hub_ray_group">
			<g id="the_rays_5" preserveAspectRatio="default">
				<linearGradient id="the_rays_5_gradient_1" gradientUnits="objectBoundingBox" x1="-160" y1="500" x2="1650" y2="500">
					<stop offset="0" stop-color="rgba( 0,  40, 50, 1 )"/>
					<stop offset="1" stop-color="white"/>
				</linearGradient>
				<linearGradient id="the_rays_5_gradient_2" gradientUnits="objectBoundingBox" x1="-160" y1="500" x2="1650" y2="500">
					<stop offset="0" stop-color="white"/>
					<stop offset="1" stop-color="rgba( 0,  40, 50, 1 )"/>
				</linearGradient>
				<polygon fill="url( #the_rays_5_gradient_1 )" stroke="url( #the_rays_5_gradient_2 )" stroke-width="0.25" stroke-miterlimit="10" points="
					757.5,1409.6 742.5,1409.6 742.5,576.13 579.86,1393.56 565.14,1390.64 727.78,573.24 408.83,1343.27 394.97,1337.53 713.94,567.46 
					250.84,1260.47 238.36,1252.13 701.44,559.16 112.1,1148.5 101.5,1137.9 690.84,548.56 -2.13,1011.64 -10.47,999.16 682.54,536.06 
					-87.53,855.03 -93.27,841.17 676.76,522.22 -140.64,684.86 -143.56,670.14 673.87,507.5 -159.6,507.5 -159.6,492.5 673.87,492.5 
					-143.56,329.86 -140.64,315.14 676.76,477.78 -93.27,158.83 -87.53,144.97 682.54,463.94 -10.47,0.84 -2.13,-11.64 690.84,451.44 
					101.5,-137.9 112.1,-148.5 701.44,440.84 238.36,-252.13 250.84,-260.47 713.94,432.54 394.97,-337.53 408.83,-343.27 
					727.78,426.76 565.14,-390.64 579.86,-393.56 742.5,423.87 742.5,-409.6 757.5,-409.6 757.5,423.87 920.14,-393.56 934.86,-390.64 
					772.22,426.76 1091.17,-343.27 1105.03,-337.53 786.06,432.54 1249.16,-260.47 1261.64,-252.13 798.56,440.84 1387.9,-148.5 
					1398.5,-137.9 809.16,451.44 1502.13,-11.64 1510.47,0.84 817.46,463.94 1587.53,144.97 1593.27,158.83 823.24,477.78 
					1640.64,315.14 1643.56,329.86 826.13,492.5 1659.6,492.5 1659.6,507.5 826.13,507.5 1643.56,670.14 1640.64,684.86 823.24,522.22 
					1593.27,841.17 1587.53,855.03 817.46,536.06 1510.47,999.16 1502.13,1011.64 809.16,548.56 1398.5,1137.9 1387.9,1148.5 
					798.56,559.16 1261.64,1252.13 1249.16,1260.47 786.06,567.46 1105.03,1337.53 1091.17,1343.27 772.22,573.24 934.86,1390.64 
					920.14,1393.56 757.5,576.13 "/>
			</g>		
			<g id="the_rays_4">
				<linearGradient id="the_rays_4_gradient" gradientUnits="objectBoundingBox" x1="86.1" y1="500" x2="1413.9" y2="500">
					<stop offset="0" stop-color="rgba( 0,  40, 50, 1 )"/>
					<stop offset="1" stop-color="white"/>
				</linearGradient>
				<polygon fill="url( #the_rays_4_gradient )" points="684.7,-158.7 750,500 815.4,-158.7 750,500 
					943.7,-133.4 750,500 1064.5,-83.7 750,500 1173.2,-11.6 750,500 1265.7,80.1 750,500 1338.4,188 750,500 1388.4,307.9 750,500 
					1413.9,435.2 750,500 1413.9,564.9 750,500 1388.4,692.2 750,500 1338.3,812.1 750,500 1265.6,919.9 750,500 1173.2,1011.7 750,500 
					1064.4,1083.8 750,500 943.6,1133.4 750,500 815.3,1158.7 750,500 684.6,1158.7 750,500 556.3,1133.4 750,500 435.5,1083.7 750,500 
					326.8,1011.6 750,500 234.3,919.9 750,500 161.6,812 750,500 111.6,692.1 750,500 86.1,564.8 750,500 86.1,435.1 750,500 
					111.6,307.8 750,500 161.7,187.9 750,500 234.4,80.1 750,500 326.8,-11.7 750,500 435.6,-83.8 750,500 556.4,-133.4 750,500 "/>
			</g>		
			<g id="the_rays_3">
				<linearGradient id="the_rays_3_gradient" gradientUnits="objectBoundingBox" x1="-250" y1="500" x2="1750" y2="500">
					<stop offset="0" stop-color="rgba( 220, 240, 250, 0.7 )" />
					<stop offset="1" stop-color="rgba( 0,  40, 50, 0.3 )"/>
				</linearGradient>
				<polygon opacity="0.6" fill="url(#the_rays_3_gradient)" enable-background="new" points="750,-500 
					774.5,251.2 945.09,-480.79 822.57,260.76 1132.68,-423.88 867.85,279.52 1305.57,-331.47 908.6,306.75 1457.11,-207.11 
					943.25,341.4 1581.47,-55.57 970.48,382.15 1673.88,117.32 989.24,427.43 1730.79,304.91 998.8,475.5 1750,500 998.8,524.5 
					1730.79,695.09 989.24,572.57 1673.88,882.68 970.48,617.85 1581.47,1055.57 943.25,658.6 1457.11,1207.11 908.6,693.25 
					1305.57,1331.47 867.85,720.48 1132.68,1423.88 822.57,739.24 945.09,1480.79 774.5,748.8 750,1500 725.5,748.8 554.91,1480.79 
					677.43,739.24 367.32,1423.88 632.15,720.48 194.43,1331.47 591.4,693.25 42.89,1207.11 556.75,658.6 -81.47,1055.57 529.52,617.85 
					-173.88,882.68 510.76,572.57 -230.79,695.09 501.2,524.5 -250,500 501.2,475.5 -230.79,304.91 510.76,427.43 -173.88,117.32 
					529.52,382.15 -81.47,-55.57 556.75,341.4 42.89,-207.11 591.4,306.75 194.43,-331.47 632.15,279.52 367.32,-423.88 677.43,260.76 
					554.91,-480.79 725.5,251.2 "/>
			</g>		
			<g id="the_rays_2">
				<linearGradient id="the_rays_2_gradient" gradientUnits="objectBoundingBox" x1="250" y1="500" x2="1250" y2="500">
					<stop offset="0" stop-color="rgba( 0,  40, 50, 1 )"/>
					<stop offset="1" stop-color="rgba( 255, 255, 255, 0.7 )"/>
				</linearGradient>
				<polygon id="the_rays_2" opacity="0.6" fill="url( #the_rays_2_gradient )" stroke="black" stroke-width="2" stroke-miterlimit="10" enable-background="new" points="
					750,0 757.35,425.36 847.55,9.61 771.77,428.23 941.34,38.06 785.35,433.86 1027.79,84.27 797.58,442.02 1103.55,146.45 
					807.98,452.42 1165.73,222.21 816.14,464.65 1211.94,308.66 821.77,478.23 1240.39,402.45 824.64,492.65 1250,500 824.64,507.35 
					1240.39,597.55 821.77,521.77 1211.94,691.34 816.14,535.35 1165.73,777.79 807.98,547.58 1103.55,853.55 797.58,557.98 
					1027.79,915.73 785.35,566.14 941.34,961.94 771.77,571.77 847.55,990.39 757.35,574.64 750,1000 742.65,574.64 652.45,990.39 
					728.23,571.77 558.66,961.94 714.65,566.14 472.21,915.73 702.42,557.98 396.45,853.55 692.02,547.58 334.27,777.79 683.86,535.35 
					288.06,691.34 678.23,521.77 259.61,597.55 675.36,507.35 250,500 675.36,492.65 259.61,402.45 678.23,478.23 288.06,308.66 
					683.86,464.65 334.27,222.21 692.02,452.42 396.45,146.45 702.42,442.02 472.21,84.27 714.65,433.86 558.66,38.06 728.23,428.23 
					652.45,9.61 742.65,425.36 "/>
			</g>		
			<g id="the_rays_1">
				<radialGradient id="the_rays_1_gradient" cx="750" cy="500" r="1000" gradientUnits="objectBoundingBox">
					<stop offset="0" stop-color="white"/>
					<stop offset="1" stop-color="rgba( 0,  40, 50, 1 )"/>
				</radialGradient>
				<polygon fill="url(#the_rays_1_gradient)" stroke="rgba( 0,  40, 50, 1 )" stroke-miterlimit="10" points="750,-500 
					750.98,490.05 945.09,-480.79 752.9,490.43 1132.68,-423.88 754.71,491.18 1305.57,-331.47 756.34,492.27 1457.11,-207.11 
					757.73,493.66 1581.47,-55.57 758.82,495.29 1673.88,117.32 759.57,497.1 1730.79,304.91 759.95,499.02 1750,500 759.95,500.98 
					1730.79,695.09 759.57,502.9 1673.88,882.68 758.82,504.71 1581.47,1055.57 757.73,506.34 1457.11,1207.11 756.34,507.73 
					1305.57,1331.47 754.71,508.82 1132.68,1423.88 752.9,509.57 945.09,1480.79 750.98,509.95 750,1500 749.02,509.95 554.91,1480.79 
					747.1,509.57 367.32,1423.88 745.29,508.82 194.43,1331.47 743.66,507.73 42.89,1207.11 742.27,506.34 -81.47,1055.57 
					741.18,504.71 -173.88,882.68 740.43,502.9 -230.79,695.09 740.05,500.98 -250,500 740.05,499.02 -230.79,304.91 740.43,497.1 
					-173.88,117.32 741.18,495.29 -81.47,-55.57 742.27,493.66 42.89,-207.11 743.66,492.27 194.43,-331.47 745.29,491.18 
					367.32,-423.88 747.1,490.43 554.91,-480.79 749.02,490.05 "/>
			</g>
		</g>
	</defs>
</svg>
