<svg xmlns="http://www.w3.org/2000/svg">
	<defs>
		<g id="the_bw_spoked_wheel">			
			<path class="st0" d="M766.35,227.65C723.01,184.31,663.14,157.5,597,157.5c-0.17,0-0.33,0.01-0.5,0.01l0,239.99L766.35,227.65z"/>
			<path class="st1" d="M596.5,157.51c-66.19,0.14-126.08,27.12-169.35,70.65L596.5,397.5L596.5,157.51z"/>
			<path class="st2" d="M596.5,397.5l169.35,169.35c43.53-43.27,70.51-103.15,70.65-169.35L596.5,397.5z"/>
			<path class="st3" d="M427.15,228.15C384.11,271.45,357.5,331.12,357.5,397c0,0.17,0.01,0.33,0.01,0.5l238.99,0L427.15,228.15z"/>
			<path class="st4" d="M836.49,397.5c0-0.17,0.01-0.33,0.01-0.5c0-66.14-26.81-126.01-70.15-169.35L596.5,397.5L836.49,397.5z"/>
			<path class="st5" d="M596.5,636.49c0.17,0,0.33,0.01,0.5,0.01c65.88,0,125.55-26.61,168.85-69.65L596.5,397.5L596.5,636.49z"/>
			<path class="st6" d="M357.51,397.5c0.14,65.94,26.91,125.62,70.14,168.85L596.5,397.5L357.51,397.5z"/>
			<path class="st7" d="M427.65,566.35c43.23,43.23,102.91,70.01,168.85,70.14l0-238.99L427.65,566.35z"/>
		</g>
	</defs>
</svg>