<svg id="the_hub_ring_svg" width="0" height="0" preserveAspectRatio="xMidYMid">	
	
	<defs>		
		<g id="the_ring_template">
			<path class="blue" fill="hsla( 216, 73%, 68%, 1 )" d="M89.3,375.5l32.2-77.7l46.8-69.9l59.5-59.5l69.9-46.8l77.7-32.2L457.9,73H542
				l82.5,16.4l77.7,32.2l69.9,46.8l59.5,59.5l46.8,69.9l32.2,77.7l16.4,82.5V542l-16.4,82.5l-32.2,77.7l-46.8,69.9L772,831.6
				l-69.7,46.8l-77.7,32.2L542.1,927H458l-82.5-16.4l-77.7-32.2L228,831.6l-59.5-59.5l-46.8-69.9l-32.2-77.7L73.1,542V458L89.3,375.5z
				 M94.2,460.1V540l15.6,78.4l30.6,73.8l44.4,66.5l56.5,56.5l66.5,44.4l73.8,30.6l78.4,15.6h79.9l78.4-15.6l73.8-30.6l66.5-44.4
				l56.5-56.5l44.4-66.5l30.6-73.8l15.6-78.4v-79.9l-15.6-78.4l-30.6-73.8L815,241.4l-56.5-56.5l-66.5-44.4L618.2,110l-78.4-15.6H460
				L381.6,110l-73.8,30.6l-66.5,44.4l-56.5,56.5l-44.4,66.5l-30.6,73.8L94.2,460.1z" />
			<path class="red" fill="hsla( 358, 85%, 49%, 1 )" d="M67.9,368.9l33.8-81.8l49.2-73.6l62.6-62.6l73.6-49.2l81.8-33.8l86.9-17.3h88.5
				l86.9,17.3l81.8,33.8l73.6,49.2l62.6,62.6l49.2,73.6l33.8,81.8l17.3,86.9v88.5l-17.3,86.9l-33.8,81.8l-49.2,73.6l-62.6,62.6
				l-73.6,49.2l-81.8,33.8l-86.9,17.3h-88.5l-86.9-17.3l-81.8-33.8l-73.6-49.2l-62.6-62.6l-49.2-73.6l-33.8-81.8l-17.3-86.9v-88.5
				L67.9,368.9z M73,457.9V542l16.4,82.5l32.2,77.7l46.8,69.9l59.5,59.5l69.9,46.8l77.7,32.2l82.5,16.4H542l82.5-16.4l77.7-32.2
				l69.9-46.8l59.5-59.5l46.8-69.9l32.2-77.7L927,542v-84.1l-16.4-82.5l-32.2-77.7l-46.8-69.9l-59.5-59.5l-69.9-46.8l-77.7-32.2L542,73
				H458l-82.5,16.4l-77.7,32.2l-69.9,46.8l-59.5,59.5l-46.8,69.9l-32.2,77.7L73,457.9z" />
			<path class="green" fill="hsla( 148, 96%, 53%, 1 )" d="M45.2,362L80.8,276l51.8-77.5l65.9-65.9L276,80.8L362,45.2L453.4,27h93.2L638,45.2
				L724,80.8l77.5,51.8l65.9,65.9l51.8,77.5l35.6,86.1l18.2,91.4v93.2L954.8,638L919.2,724l-51.8,77.5l-65.9,65.9L724,919.2L638,954.8
				L546.6,973h-93.2L362,954.8L276,919.2l-77.5-51.8l-65.9-65.9L80.8,724L45.2,638L27,546.6v-93.2L45.2,362z M50.6,455.7v88.5
				l17.3,86.9l33.8,81.8l49.2,73.6l62.6,62.6l73.6,49.2l81.8,33.8l86.9,17.3h88.5l86.9-17.3l81.8-33.8l73.6-49.2l62.6-62.6l49.2-73.6
				l33.9-81.8l17.3-86.9v-88.5l-17.3-86.9l-33.9-81.8l-49.2-73.6l-62.6-62.6l-73.6-49.2l-81.8-33.8l-86.9-17.3h-88.5l-86.9,17.3
				l-81.8,33.8l-73.6,49.2l-62.6,62.6l-49.2,73.6l-33.8,81.8L50.6,455.7z" />
			<path class="yellow" fill="hsla( 50, 95%, 67%, 1 )" d="M21.2,354.8l37.5-90.6l54.5-81.5l69.3-69.3l81.5-54.5l90.6-37.5l96.2-19.2h98.1
				l96.2,19.2l90.6,37.5l81.5,54.5l69.4,69.3l54.5,81.5l37.5,90.6l19.2,96.2V549l-19.2,96.2l-37.5,90.6l-54.5,81.5l-69.3,69.3
				l-81.5,54.5l-90.6,37.5L549,997.8H451l-96.2-19.2l-90.6-37.5l-81.5-54.5l-69.3-69.3l-54.5-81.5l-37.5-90.6L2.2,549V451L21.2,354.8z
				 M26.9,453.4v93.2l18.2,91.4L80.8,724l51.8,77.5l65.9,65.9l77.5,51.8l86.1,35.6l91.4,18.2h93.2l91.4-18.2l86.1-35.6l77.5-51.8
				l65.9-65.9l51.8-77.5l35.6-86.1l18.2-91.4v-93.2L954.8,362l-35.6-86.1l-51.8-77.5l-65.9-65.9L724,80.8l-86.1-35.6l-91.4-18.2h-93.2
				L362,45.1l-86.1,35.6l-77.5,51.8l-65.9,65.9l-51.8,77.5L45.1,362L26.9,453.4z" />
		</g>
		<g id="the_hub_ring_group" stroke="black" stroke-width="2">
			<use id="the_outer_ring" class="hub ring outer" href="#the_ring_template" x="0px" y="0px" />
			<use id="the_middle_ring" class="hub ring middle" href="#the_ring_template" x="0px" y="0px" />
			<use id="the_inner_ring" class="hub ring inner" href="#the_ring_template" x="0px" y="0px" />
		</g>
	</defs>
	
</svg>